<mxfile host="app.diagrams.net" modified="2024-06-13T08:15:58.069Z" agent="Mozilla/5.0 (Macintosh; Intel Mac OS X 10_15_7) AppleWebKit/537.36 (KHTML, like Gecko) Chrome/125.0.0.0 Safari/537.36 Edg/125.0.0.0" version="24.5.3" etag="B9Ha8rQTJ0Eo2lIG7Ftv" type="github">
  <diagram name="第 1 页" id="PrHgZ0LK0u-07qySdCMO">
    <mxGraphModel>
      <root>
        <mxCell id="0" />
        <mxCell id="1" parent="0" />
      </root>
    </mxGraphModel>
  </diagram>
</mxfile>
